<svg width="133" height="133" viewBox="0 0 133 133" fill="none" xmlns="http://www.w3.org/2000/svg">
<path fill-rule="evenodd" clip-rule="evenodd" d="M6.75391 36.4971V21.5605C6.75391 13.3961 13.3962 6.75391 21.5605 6.75391H36.4971C38.3621 6.75391 39.874 5.24194 39.874 3.37695C39.874 1.51197 38.3621 0 36.4971 0H21.5605C9.67211 0 0 9.67198 0 21.5605V36.4971C0 38.3621 1.51197 39.874 3.37695 39.874C5.24194 39.874 6.75391 38.3621 6.75391 36.4971ZM36.4971 126.246C38.3621 126.246 39.874 127.758 39.874 129.623C39.874 131.488 38.3621 133 36.4971 133H21.5605C9.67211 133 0 123.328 0 111.439V96.5029C0 94.6379 1.51197 93.126 3.37695 93.126C5.24194 93.126 6.75391 94.6379 6.75391 96.5029V111.439C6.75391 119.604 13.3962 126.246 21.5605 126.246H36.4971ZM133 96.5029V111.439C133 123.328 123.328 133 111.439 133H96.5029C94.6379 133 93.126 131.488 93.126 129.623C93.126 127.758 94.6379 126.246 96.5029 126.246H111.439C119.604 126.246 126.246 119.604 126.246 111.439V96.5029C126.246 94.6379 127.758 93.126 129.623 93.126C131.488 93.126 133 94.6379 133 96.5029ZM133 21.5605V36.4971C133 38.3621 131.488 39.874 129.623 39.874C127.758 39.874 126.246 38.3621 126.246 36.4971V21.5605C126.246 13.3961 119.604 6.75391 111.439 6.75391H96.5029C94.6379 6.75391 93.126 5.24194 93.126 3.37695C93.126 1.51197 94.6379 0 96.5029 0H111.439C123.328 0 133 9.67198 133 21.5605ZM89.8047 98.3C91.2275 96.9858 91.3154 94.7672 90.0013 93.3444C88.687 91.9217 86.4684 91.8338 85.0457 93.1478C79.9833 97.8241 73.3969 100.399 66.5 100.399C59.6031 100.399 53.0167 97.8241 47.9543 93.1478C46.5313 91.8338 44.313 91.9218 42.9987 93.3444C41.6846 94.7672 41.7725 96.9858 43.1953 98.3C49.5576 104.177 57.8338 107.413 66.5 107.413C75.1662 107.413 83.4424 104.177 89.8047 98.3ZM73.5137 50.1348V75.0723C73.5137 80.0139 69.4934 84.0342 64.5518 84.0342H61.6943C59.7575 84.0342 58.1875 82.4642 58.1875 80.5273C58.1875 78.5905 59.7575 77.0205 61.6943 77.0205H64.5518C65.626 77.0205 66.5 76.1465 66.5 75.0723V50.1348C66.5 48.198 68.07 46.6279 70.0068 46.6279C71.9436 46.6279 73.5137 48.198 73.5137 50.1348ZM97.6719 59.9409V49.9399C97.6719 48.1108 96.189 46.6279 94.3599 46.6279C92.5307 46.6279 91.0479 48.1108 91.0479 49.9399V59.9409C91.0479 61.7701 92.5307 63.2529 94.3599 63.2529C96.189 63.2529 97.6719 61.7701 97.6719 59.9409ZM36.1074 59.9409C36.1074 61.7701 37.5903 63.2529 39.4194 63.2529C41.2486 63.2529 42.7314 61.7701 42.7314 59.9409V49.9399C42.7314 48.1108 41.2486 46.6279 39.4194 46.6279C37.5903 46.6279 36.1074 48.1108 36.1074 49.9399V59.9409Z" fill="white"/>
</svg>
