<?xml version="1.0" encoding="UTF-8"?>
<svg xmlns="http://www.w3.org/2000/svg" xmlns:xlink="http://www.w3.org/1999/xlink" viewBox="0 0 250 250" width="250px" height="250px">
<g id="surface197877996">
<path style=" stroke:none;fill-rule:nonzero;fill:rgb(100%,100%,100%);fill-opacity:1;" d="M 175 35 C 150.191406 35 130 55.191406 130 80 L 130 100 L 45 100 C 36.714844 100 30 106.714844 30 115 L 30 190 C 30 198.285156 36.714844 205 45 205 L 135 205 C 143.285156 205 150 198.285156 150 190 L 150 115 C 150 106.714844 143.285156 100 135 100 L 135 80 C 135 57.945312 152.945312 40 175 40 C 197.054688 40 215 57.945312 215 80 L 215 102.5 C 215 103.878906 216.121094 105 217.5 105 C 218.878906 105 220 103.878906 220 102.5 L 220 80 C 220 55.191406 199.808594 35 175 35 Z M 45 105 L 135 105 C 140.523438 105 145 109.476562 145 115 L 145 190 C 145 195.523438 140.523438 200 135 200 L 45 200 C 39.476562 200 35 195.523438 35 190 L 35 115 C 35 109.476562 39.476562 105 45 105 Z M 45 105 "/>
</g>
</svg>
